<?xml version="1.0" encoding="utf-8"?>
<!-- Generator: Adobe Illustrator 21.1.0, SVG Export Plug-In . SVG Version: 6.00 Build 0)  -->
<svg version="1.1" id="Layer_1" xmlns="http://www.w3.org/2000/svg" xmlns:xlink="http://www.w3.org/1999/xlink" x="0px" y="0px"
	 viewBox="0 0 1152 300" style="enable-background:new 0 0 1152 300;" xml:space="preserve">
<style type="text/css">
	.st0{display:none;fill:url(#SVGID_1_);stroke:#000000;stroke-miterlimit:10;}
	.st1{fill:#FFFFFF;}
	.st2{fill:#3853A4;}
	.st3{fill:#3753A4;}
	.st4{fill:#ED2124;}
	.st5{fill:#ED2224;}
	.st6{opacity:0.7;fill:#FFFFFF;enable-background:new    ;}
	.st7{stroke:#FDF9D2;stroke-width:7;stroke-miterlimit:10;}
	.st8{fill:#FFFFFF;stroke:#FDF9D2;stroke-width:7;stroke-miterlimit:10;}
	.st9{fill:#3853A4;stroke:#FDF9D2;stroke-width:7;stroke-miterlimit:10;}
	.st10{fill:#3753A4;stroke:#FDF9D2;stroke-width:7;stroke-miterlimit:10;}
	.st11{fill:#ED2124;stroke:#FDF9D2;stroke-width:7;stroke-miterlimit:10;}
	.st12{fill:#ED2224;stroke:#FDF9D2;stroke-width:7;stroke-miterlimit:10;}
	.st13{opacity:0.7;fill:#FFFFFF;stroke:#FDF9D2;stroke-width:7;stroke-miterlimit:10;enable-background:new    ;}
	.st14{stroke:#FDF9D2;stroke-width:7;}
	.st15{stroke:#000000;stroke-miterlimit:10;}
</style>
<linearGradient id="SVGID_1_" gradientUnits="userSpaceOnUse" x1="144" y1="646" x2="1008" y2="-218" gradientTransform="matrix(1 0 0 -1 0 426)">
	<stop  offset="0" style="stop-color:#4EC9F5"/>
	<stop  offset="0.3703" style="stop-color:#C5C5E3"/>
	<stop  offset="0.618" style="stop-color:#B5D2EE"/>
	<stop  offset="0.9831" style="stop-color:#ADE0EC"/>
</linearGradient>
<rect y="-76" class="st0" width="1152" height="576"/>
<polygon points="998.7,190 1039.2,184.7 1015.6,164.2 1048.5,177.1 1051.2,177.1 1054.3,114.6 1061.6,174.3 1064.2,176.1 
	1084.4,152.3 1073.2,182.5 1109.8,184.7 1076.6,190 1097.9,209.4 1066.9,197 1063.9,199.3 1060.5,260.1 1052.3,196.7 1029.8,222.4 
	1041.8,192.6 "/>
<polygon points="42.2,103.7 82.6,98.5 59.1,77.9 92,90.8 94.6,90.8 97.7,28.3 105.1,88 107.7,89.9 127.9,66 116.7,96.2 153.3,98.5 
	120,103.7 141.3,123.1 110.3,110.8 107.3,113 103.9,173.8 95.7,110.4 73.3,136.2 85.2,106.3 "/>
<polygon class="st1" points="56.5,103.3 86.9,99.5 69.2,84.5 94,93.9 95.9,93.9 98.3,48.5 103.8,91.9 105.8,93.2 121,75.9 
	112.6,97.8 140.1,99.5 115.1,103.3 131.1,117.4 107.8,108.4 105.5,110.1 103,154.2 96.8,108.2 79.9,126.9 88.9,105.2 "/>
<polygon class="st1" points="1012.5,189.2 1042.9,185.4 1025.2,170.5 1050,179.9 1051.9,179.9 1054.3,134.5 1059.8,177.8 
	1061.8,179.2 1077,161.8 1068.5,183.8 1096.1,185.4 1071.1,189.2 1087.1,203.4 1063.8,194.4 1061.5,196 1059,240.2 1052.8,194.1 
	1035.9,212.9 1044.9,191.1 "/>
<g>
	<path class="st2" d="M641.3,186.9c0-8.8-8.8-8.2-13.1-13.1l-30.1-34.4c-2.3-2.7-5.8-6.2-5.8-10.1c0-6,12.2-14.8,15.1-17.7
		c5-5,20,2,20-9.8c0-10.2-16.7-9.5-23.6-9.5s-25.9-0.6-25.9,10.1c0,3.2,2.3,4.6,2.3,7.6c0,3.3-11.4,18.1-15.3,18.1
		c-2.6,0-2.7-4.2-2.7-6c0-17,7.9-12.4,7.9-20c0-9.9-15-9.8-21.7-9.8c-8.7,0-14.8,0.6-19.2,1.5l101,101
		C635.5,194.6,641.3,193.4,641.3,186.9z"/>
	<g>
		<path class="st3" d="M648.1,92.4h25c0,0,5,1.6,5,5.2c0,3.7,0,60.8,0,60.8l-30,23.8V92.4z"/>
		<polygon class="st3" points="701.1,164.5 721.1,176 721.1,194.8 648.1,194.8 648.1,188.6 678.1,164.5 		"/>
		<path class="st3" d="M648.1,92.4c0,0,0-18,0-21.4s-2.2-4.7-4.3-4.7c-2.2,0-14,0-14,0s-4.1-1.3-4.1-5.7s3.6-5.2,3.6-5.2
			s16.9,0,18.8,0c2,0,4.8,1.2,7.5,4.6c2.7,3.4,2.2,7.8,2.2,9.5s0,23,0,23h-9.7V92.4z"/>
	</g>
	<g>
		<path class="st4" d="M86.2,125.4c0-15,14.4-33.6,42.3-33.6c9.2,0,19.6,4,21.7,4c2,0,4-2,7.1-2c4.9,0,15.8,11.1,15.8,23.2
			c0,4.9-3.2,9.8-8.5,9.8c-9.6,0-15.3-16.4-30.2-16.4c-4.5,0-9.2,2-9.2,7.2c0,11.4,19.7,8.4,36.4,19.4c8.9,5.9,13.4,13.1,13.4,23.9
			c0,16.8-13.8,35.9-47.4,35.9c-9.5,0-25.8-2.4-34-6.9c-6.9-3.9-10.2-19.2-10.2-26.5c0-3.9,1.7-7.8,6-7.8c10.2,0,8.5,22.9,35,22.9
			c3.2,0,11.1-1.6,11.1-7.1c0-10.4-19.7-7.8-35.7-20.6C91.9,144.6,86.2,135.8,86.2,125.4z"/>
		<path class="st4" d="M193.5,115.8c0-10.8-13.4-6-13.4-15.1c0-5.8,6.3-7.1,10.8-7.1c3.6,0,7.1,0.3,10.7,0.3c20.9,0,33.6-2,39.6-2
			c19.6,0,38.4,11.4,38.4,33c0,21.5-18.1,33-38.2,33c-4.3,0-8.6-0.7-12.5-0.7c-1.7,0-2.3,0.7-2.3,2.3v8.4
			c0.4,18,10.9,10.5,10.9,18.9c0,9.4-20.7,9.8-27.2,9.8c-6,0-27.4-0.1-27.4-9.5c0-7.9,10.5-3,10.5-14.8L193.5,115.8L193.5,115.8z
			 M232,108.9c-5.6,0-5.5,1.7-5.5,4.6v21.6c0,3-1.3,6.3,6.5,6.3c9.5,0,13.2-7.2,13.2-16C246.3,116.4,241.7,108.9,232,108.9z"/>
		<path class="st4" d="M297.6,142.8c4.5-9.9,10.4-22.6,10.4-34c0-9.9,4.6-17.4,17.4-17.4c12.5,0,20.4,12.8,26.1,22.3
			c2.4,4.2,24.2,48.2,29.4,60c4.8,10.9,12.5,4.3,12.5,12.5c0,10.5-20.4,10.1-27.6,10.1c-20.6,0-33-0.1-33-9.1c0-6.9,8.8-4.3,8.8-9.4
			c0-6.5-3.6-7.1-26.8-7.1c-7.5,0-12,0.3-12,7.3c0,5.6,9.2,1.9,9.2,9.4c0,8.6-15.6,8.8-21.3,8.8c-20.6,0-22.5-3.9-22.5-8.5
			c0-6.8,7.8-4.8,12-9.9c3.2-3.9,6.2-10.8,8.4-15.4L297.6,142.8z M327.8,153.2c1.4,0,5.8,0.3,5.8-1.9s-4.2-9.6-5.3-11.7
			c-1.3-2.3-3.7-7.6-6.9-7.6c-3.5,0-5.9,8.6-6.5,10.2s-3,7.2-3,8.9c0,2.4,3.6,2,5.2,2h10.7V153.2z"/>
		<path class="st4" d="M406.3,123.8c0-22.3-10.9-13.1-10.9-22c0-7.9,11.2-8.9,17-8.9c3,0,5.9,0.3,8.9,0.4c2.9,0.3,5.9,0.6,8.8,0.6
			c4.6,0,9.2-0.3,14-0.6c4.6-0.1,9.4-0.4,14-0.4c16.3,0,35.1,7.2,35.1,26.4c0,8.6-4.2,17-12.2,20.9c-1.3,0.7-2.3,1.2-2.3,2.9
			c0,2.2,1.9,2.7,3.6,3.5c10.1,3.7,14.5,10.4,16.6,25.9c1.7,13.4,11.1,5.3,11.1,14.1c0,5.5-6.6,11.2-22.9,11.2
			c-23,0-25.9-13.2-30.4-32.3c-1.6-6.6-4-13.1-12-13.1c-3.2,0-4.3,0.4-4.3,9.5c0,4.2,0.3,9.9,1,14c1.2,6.6,8.5,4.6,8.5,11.5
			c0,5.2-3.6,9.1-26.9,9.1c-6.9,0-27.4,0-27.4-10.5c0-7.5,10.8-2.3,10.8-21v-41.2H406.3z M439.7,130.2c-0.3,3.7-1,6.9,3.7,6.9
			c9.4,0,12.4-5.2,12.4-14.1c0-7.1-1.7-14.3-10.1-14.3c-5.3,0-5.2,3.3-5.5,7.8L439.7,130.2z"/>
	</g>
	<g>
		<path class="st2" d="M788.4,93.9c19.3,0,22-2.9,24.3-2.9c8.2,0,11.7,14.1,11.7,20.4c0,4.8-1.9,10.4-7.5,10.4
			c-11.4,0-2.2-13.8-29.5-13.8c-16,0-14.4,2.9-14.4,19.4c0,8.4,0.4,8.6,9.2,8.6c10.9,0,2.7-16,13-16c8.4,0,8.9,16.3,8.9,21.9
			c0,5.9-1,23.2-9.6,23.2c-8.9,0,0-15.1-14.5-15.1c-6,0-5.9,5.5-5.9,10.1c0,21,1.4,20,16.6,20c29.5,0,21.2-20.3,33-20.3
			c4.6,0,6.9,5.2,6.9,9.2c0,9.8-7.8,27.4-13.5,27.4c-1,0-3.3-0.4-6.3-0.9c-3.2-0.3-7.2-0.7-12.1-0.7h-59.2c-9.5,0-9.6-4.3-9.6-6.2
			c0-7.9,9.8-1.6,10.8-16.8c1.7-26.2,1.9-23.6,0.4-49.7c-1-22-12-10.7-12-20.9c0-8.8,12.1-7.3,18-7.3L788.4,93.9L788.4,93.9z"/>
		<path class="st2" d="M860.9,142.8c4.5-9.9,10.4-22.6,10.4-34c0-9.9,4.6-17.4,17.4-17.4c12.5,0,20.4,12.8,26.1,22.3
			c2.4,4.2,24.2,48.2,29.4,60c4.8,10.9,12.5,4.3,12.5,12.5c0,10.5-20.4,10.1-27.6,10.1c-20.6,0-33-0.1-33-9.1c0-6.9,8.8-4.3,8.8-9.4
			c0-6.5-3.6-7.1-26.8-7.1c-7.5,0-12,0.3-12,7.3c0,5.6,9.2,1.9,9.2,9.4c0,8.6-15.6,8.8-21.3,8.8c-20.6,0-22.5-3.9-22.5-8.5
			c0-6.8,7.8-4.8,12-9.9c3.2-3.9,6.2-10.8,8.4-15.4L860.9,142.8z M891.1,153.2c1.4,0,5.8,0.3,5.8-1.9s-4.2-9.6-5.3-11.7
			c-1.3-2.3-3.7-7.6-6.9-7.6c-3.5,0-5.9,8.6-6.5,10.2s-3,7.2-3,8.9c0,2.4,3.6,2,5.2,2h10.7V153.2z"/>
		<path class="st2" d="M1035.7,128.6c1.7,1.4,6.3,5.6,8.9,5.6c3.6,0,3.7-5.9,3.7-8.4c0-3.6-0.1-9.8-1.3-13.1c-2-6-9.6-3.9-9.6-11.7
			c0-9.2,14.7-8.8,20.7-8.8c6.3,0,22-0.7,22,9.2c0,8.2-7.6,5.2-10.1,11.8c-1.9,5.2-1.9,14.1-1.9,19.6v37.3c0,6.5,0.9,26.2-8.8,26.2
			c-2.9,0-5.3-1.7-7.5-3.6l-44.5-39.9c-2-1.9-5.8-5.3-8.8-5.3c-4.5,0-4.6,9.4-4.6,12.4c0,4,0.1,9.4,1,13.1c2.2,9.2,9.8,5.8,9.8,12.8
			c0,9.6-14.8,10.5-21.6,10.5c-6.6,0-21.5-0.9-21.5-10.2c0-7.6,8.4-4.6,9.8-13.8c1-6.2,1.3-15.3,1.3-21.7c0-10.4,0-20.9-1.6-31.2
			c-2.3-14.4-12.7-8.8-12.7-17.4c0-10.2,19.4-9.6,25.9-9.6c8.9,0,10.5,0.6,17,6.3L1035.7,128.6z"/>
	</g>
	<path class="st5" d="M518.2,102.7c0,8.8,7.6,3.5,9.5,15.8c1.6,8.8,1.4,19.2,1.4,28.1c0,8.2-0.1,17.4-1.4,25.5
		c-1.7,12-8.9,8.1-8.9,15.6c0,4.9,2.9,8.8,25.6,8.8c25.3,0,28.7-4.3,28.7-8.9c0-7.1-9.1-7.6-9.1-14.5v-3c0-4.2,0.6-7.9,4.3-7.9
		c3.3,0,11.8,10.5,14.3,13.4l9.8,12c5.8,7.1,5.9,7.5,11.5,7.5h18.2L523,96C517.8,98.2,518.2,101.4,518.2,102.7z"/>
</g>
<polygon class="st6" points="56.5,103 86.9,99.2 69.2,84.3 94,93.6 95.9,93.6 98.3,48.2 103.8,91.6 105.8,92.9 121,75.6 112.6,97.6 
	140.1,99.2 115.1,103 131.1,117.1 107.8,108.1 105.5,109.8 103,154 96.8,107.9 79.9,126.6 88.9,104.9 "/>
<polygon class="st6" points="1012.5,189.2 1042.9,185.4 1025.2,170.5 1050,179.9 1051.9,179.9 1054.3,134.5 1059.8,177.8 
	1061.8,179.2 1077,161.8 1068.5,183.8 1096.1,185.4 1071.1,189.2 1087.1,203.4 1063.8,194.4 1061.5,196 1059,240.2 1052.8,194.1 
	1035.9,212.9 1044.9,191.1 "/>
<g>
	<path d="M181.3,265.4c-4.9-1.3-9.7-2.8-13.9-4.2c-0.8-0.3-1.5-0.5-2.2-0.5c-8.6-0.3-16-6.7-16-18.4c0-11.7,7.1-19.2,17-19.2
		s16.3,7.7,16.3,18.4c0,9.3-4.3,15.3-10.4,17.4v0.2c3.6,0.9,7.6,1.8,10.6,2.3L181.3,265.4z M177.5,241.7c0-7.3-3.8-14.8-11.5-14.8
		c-7.9,0-11.8,7.3-11.8,15.2c-0.1,7.7,4.2,14.7,11.6,14.7C173.2,256.8,177.5,250,177.5,241.7z"/>
	<path d="M210.4,253c0,2.7,0.1,5.1,0.2,7.1h-4.2l-0.3-4.3H206c-1.2,2.1-4,4.9-8.6,4.9c-4.1,0-9-2.3-9-11.4V234h4.8v14.5
		c0,5,1.5,8.3,5.8,8.3c3.2,0,5.4-2.2,6.3-4.3c0.3-0.7,0.4-1.6,0.4-2.4v-16h4.8V253H210.4z"/>
	<path d="M232.8,260.1l-0.4-3.3h-0.2c-1.5,2.1-4.3,3.9-8,3.9c-5.3,0-8-3.7-8-7.5c0-6.3,5.6-9.8,15.7-9.7V243c0-2.2-0.6-6-5.9-6
		c-2.4,0-5,0.8-6.8,1.9l-1.1-3.1c2.2-1.4,5.3-2.3,8.6-2.3c8,0,9.9,5.5,9.9,10.7v9.8c0,2.3,0.1,4.5,0.4,6.3h-4.2V260.1z M232.1,246.7
		c-5.2-0.1-11.1,0.8-11.1,5.9c0,3.1,2.1,4.5,4.5,4.5c3.4,0,5.6-2.2,6.3-4.4c0.2-0.5,0.3-1,0.3-1.5V246.7z"/>
	<path d="M244.3,221.7h4.8V260h-4.8V221.7z"/>
	<path d="M262.3,226.6c0.1,1.6-1.1,2.9-3,2.9c-1.7,0-2.9-1.3-2.9-2.9c0-1.7,1.2-3,3-3C261.2,223.6,262.3,224.9,262.3,226.6z
		 M257.1,260.1V234h4.8v26.1H257.1z"/>
	<path d="M275.4,226.4v7.5h6.8v3.6h-6.8v14.1c0,3.2,0.9,5.1,3.6,5.1c1.2,0,2.2-0.2,2.8-0.3l0.2,3.6c-0.9,0.4-2.4,0.6-4.2,0.6
		c-2.2,0-4-0.7-5.1-2c-1.4-1.4-1.8-3.7-1.8-6.8v-14.3h-4.1v-3.6h4.1v-6.3L275.4,226.4z"/>
	<path d="M289.8,233.9l5.7,15.4c0.6,1.7,1.2,3.8,1.7,5.3h0.1c0.5-1.6,1-3.6,1.7-5.5l5.2-15.3h5l-7.1,18.6c-3.4,9-5.7,13.6-9,16.4
		c-2.3,2.1-4.6,2.9-5.8,3.1l-1.2-4c1.2-0.4,2.8-1.1,4.2-2.3c1.3-1,2.9-2.9,4-5.3c0.2-0.5,0.4-0.9,0.4-1.1c0-0.3-0.1-0.6-0.3-1.2
		l-9.7-24.1H289.8z"/>
	<path d="M350.5,258.9c-1.7,0.9-5.2,1.7-9.6,1.7c-10.3,0-18-6.5-18-18.4c0-11.4,7.7-19.1,19-19.1c4.5,0,7.4,1,8.6,1.6l-1.1,3.8
		c-1.8-0.9-4.3-1.5-7.3-1.5c-8.5,0-14.2,5.5-14.2,15c0,8.9,5.1,14.6,14,14.6c2.9,0,5.8-0.6,7.7-1.5L350.5,258.9z"/>
	<path d="M379.3,246.8c0,9.7-6.7,13.9-13,13.9c-7.1,0-12.5-5.2-12.5-13.4c0-8.7,5.7-13.9,13-13.9
		C374.2,233.4,379.3,238.8,379.3,246.8z M358.6,247.1c0,5.7,3.3,10,7.9,10c4.5,0,7.9-4.3,7.9-10.2c0-4.4-2.2-10-7.8-10
		S358.6,242.1,358.6,247.1z"/>
	<path d="M385.3,241c0-2.7-0.1-4.9-0.2-7.1h4.2l0.2,4.2h0.2c1.5-2.5,3.9-4.8,8.2-4.8c3.6,0,6.3,2.2,7.4,5.2h0.1
		c0.8-1.5,1.8-2.6,2.9-3.4c1.6-1.2,3.3-1.8,5.8-1.8c3.5,0,8.6,2.3,8.6,11.3V260H418v-14.8c0-5-1.8-8-5.7-8c-2.7,0-4.8,2-5.6,4.3
		c-0.2,0.6-0.4,1.5-0.4,2.4V260h-4.6v-15.7c0-4.2-1.8-7.2-5.5-7.2c-3,0-5.1,2.4-5.9,4.8c-0.3,0.7-0.4,1.5-0.4,2.3V260h-4.6V241z"/>
	<path d="M430.3,241c0-2.7-0.1-4.9-0.2-7.1h4.2l0.2,4.2h0.2c1.5-2.5,3.9-4.8,8.2-4.8c3.6,0,6.3,2.2,7.4,5.2h0.1
		c0.8-1.5,1.8-2.6,2.9-3.4c1.6-1.2,3.3-1.8,5.8-1.8c3.5,0,8.6,2.3,8.6,11.3V260H463v-14.8c0-5-1.8-8-5.7-8c-2.7,0-4.8,2-5.6,4.3
		c-0.2,0.6-0.4,1.5-0.4,2.4V260h-4.6v-15.7c0-4.2-1.8-7.2-5.5-7.2c-3,0-5.1,2.4-5.9,4.8c-0.3,0.7-0.4,1.5-0.4,2.3V260h-4.6V241z"/>
	<path d="M478,247.9c0.1,6.4,4.2,9.1,9,9.1c3.4,0,5.5-0.6,7.2-1.4l0.8,3.4c-1.7,0.8-4.5,1.6-8.7,1.6c-8,0-12.9-5.3-12.9-13.2
		c0-7.9,4.6-14.1,12.3-14.1c8.5,0,10.8,7.5,10.8,12.3c0,1-0.1,1.7-0.2,2.2H478V247.9z M492,244.5c0.1-3-1.2-7.7-6.6-7.7
		c-4.8,0-6.9,4.4-7.3,7.7H492z"/>
	<path d="M502.4,242.1c0-3.1-0.1-5.7-0.2-8.2h4.2l0.2,5.1h0.2c1.2-3.5,4.1-5.7,7.2-5.7c0.5,0,0.9,0.1,1.4,0.2v4.5
		c-0.5-0.1-1-0.2-1.6-0.2c-3.3,0-5.7,2.5-6.4,6.1c-0.1,0.6-0.2,1.4-0.2,2.2V260h-4.7v-17.9H502.4z"/>
	<path d="M538.2,259.1c-1.2,0.6-4,1.5-7.5,1.5c-7.9,0-13-5.3-13-13.3s5.5-13.9,14-13.9c2.8,0,5.3,0.7,6.6,1.4l-1.1,3.7
		c-1.1-0.6-2.9-1.2-5.5-1.2c-6,0-9.2,4.4-9.2,9.9c0,6,3.9,9.8,9.1,9.8c2.7,0,4.5-0.7,5.8-1.3L538.2,259.1z"/>
	<path d="M549,226.6c0.1,1.6-1.1,2.9-3,2.9c-1.7,0-2.9-1.3-2.9-2.9c0-1.7,1.2-3,3-3C547.9,223.6,549,224.9,549,226.6z M543.7,260.1
		V234h4.8v26.1H543.7z"/>
	<path d="M570.8,260.1l-0.4-3.3h-0.2c-1.5,2.1-4.3,3.9-8,3.9c-5.3,0-8-3.7-8-7.5c0-6.3,5.6-9.8,15.7-9.7V243c0-2.2-0.6-6-5.9-6
		c-2.4,0-5,0.8-6.8,1.9l-1.1-3.1c2.2-1.4,5.3-2.3,8.6-2.3c8,0,9.9,5.5,9.9,10.7v9.8c0,2.3,0.1,4.5,0.4,6.3h-4.2V260.1z M570.1,246.7
		c-5.2-0.1-11.1,0.8-11.1,5.9c0,3.1,2.1,4.5,4.5,4.5c3.4,0,5.6-2.2,6.3-4.4c0.2-0.5,0.3-1,0.3-1.5V246.7z"/>
	<path d="M582.4,221.7h4.8V260h-4.8V221.7z"/>
	<path d="M629.5,260.1c-1-1-2-2.1-3.4-3.6c-3.1,2.9-6.6,4.2-10.6,4.2c-7.1,0-11.2-4.8-11.2-10.2c0-5,3-8.4,7.1-10.6v-0.2
		c-1.9-2.4-3-5-3-7.6c0-4.4,3.2-9,9.2-9c4.5,0,8,3,8,7.7c0,3.8-2.2,6.9-8,9.7v0.2c3.1,3.6,6.5,7.6,8.9,10.2c1.7-2.5,2.8-6,3.5-10.6
		h4.3c-1,5.7-2.5,10.3-5.2,13.4c1.9,2.1,3.8,4.1,6,6.4H629.5z M623.8,253.8c-2.2-2.4-6.2-6.8-10.3-11.4c-1.9,1.2-4.7,3.6-4.7,7.4
		c0,4.2,3.1,7.3,7.5,7.3C619.4,257.1,622.1,255.7,623.8,253.8z M612.7,231.6c0,2.6,1.2,4.6,2.8,6.5c3.7-2.1,6-4,6-7.1
		c0-2.2-1.2-4.7-4.2-4.7S612.7,228.8,612.7,231.6z"/>
	<path d="M655.6,223.7v15.2h17.6v-15.2h4.8v36.4h-4.8V243h-17.6v17.1h-4.7v-36.4H655.6z"/>
	<path d="M709.6,246.8c0,9.7-6.7,13.9-13,13.9c-7.1,0-12.5-5.2-12.5-13.4c0-8.7,5.7-13.9,13-13.9
		C704.5,233.4,709.6,238.8,709.6,246.8z M688.8,247.1c0,5.7,3.3,10,7.9,10c4.5,0,7.9-4.3,7.9-10.2c0-4.4-2.2-10-7.8-10
		S688.8,242.1,688.8,247.1z"/>
	<path d="M715.6,241c0-2.7-0.1-4.9-0.2-7.1h4.2l0.2,4.2h0.2c1.5-2.5,3.9-4.8,8.2-4.8c3.6,0,6.3,2.2,7.4,5.2h0.1
		c0.8-1.5,1.8-2.6,2.9-3.4c1.6-1.2,3.3-1.8,5.8-1.8c3.5,0,8.6,2.3,8.6,11.3V260h-4.6v-14.8c0-5-1.8-8-5.7-8c-2.7,0-4.8,2-5.6,4.3
		c-0.2,0.6-0.4,1.5-0.4,2.4V260h-4.6v-15.7c0-4.2-1.8-7.2-5.5-7.2c-3,0-5.1,2.4-5.9,4.8c-0.3,0.7-0.4,1.5-0.4,2.3V260h-4.6v-19
		H715.6z"/>
	<path d="M763.2,247.9c0.1,6.4,4.2,9.1,9,9.1c3.4,0,5.5-0.6,7.2-1.4l0.8,3.4c-1.7,0.8-4.5,1.6-8.7,1.6c-8,0-12.9-5.3-12.9-13.2
		c0-7.9,4.6-14.1,12.3-14.1c8.5,0,10.8,7.5,10.8,12.3c0,1-0.1,1.7-0.2,2.2h-18.3V247.9z M777.2,244.5c0.1-3-1.2-7.7-6.6-7.7
		c-4.8,0-6.9,4.4-7.3,7.7H777.2z"/>
	<path d="M824.7,258.9c-1.7,0.9-5.2,1.7-9.6,1.7c-10.3,0-18-6.5-18-18.4c0-11.4,7.7-19.1,19-19.1c4.5,0,7.4,1,8.6,1.6l-1.1,3.8
		c-1.8-0.9-4.3-1.5-7.3-1.5c-8.5,0-14.2,5.5-14.2,15c0,8.9,5.1,14.6,14,14.6c2.9,0,5.8-0.6,7.7-1.5L824.7,258.9z"/>
	<path d="M830.4,221.7h4.8V260h-4.8V221.7z"/>
	<path d="M845.8,247.9c0.1,6.4,4.2,9.1,9,9.1c3.4,0,5.5-0.6,7.2-1.4l0.8,3.4c-1.7,0.8-4.5,1.6-8.7,1.6c-8,0-12.9-5.3-12.9-13.2
		c0-7.9,4.6-14.1,12.3-14.1c8.5,0,10.8,7.5,10.8,12.3c0,1-0.1,1.7-0.2,2.2h-18.3V247.9z M859.7,244.5c0.1-3-1.2-7.7-6.6-7.7
		c-4.8,0-6.9,4.4-7.3,7.7H859.7z"/>
	<path d="M884.7,260.1l-0.4-3.3h-0.2c-1.5,2.1-4.3,3.9-8,3.9c-5.3,0-8-3.7-8-7.5c0-6.3,5.6-9.8,15.7-9.7V243c0-2.2-0.6-6-5.9-6
		c-2.4,0-5,0.8-6.8,1.9l-1.1-3.1c2.2-1.4,5.3-2.3,8.6-2.3c8,0,9.9,5.5,9.9,10.7v9.8c0,2.3,0.1,4.5,0.4,6.3h-4.2V260.1z M884,246.7
		c-5.2-0.1-11.1,0.8-11.1,5.9c0,3.1,2.1,4.5,4.5,4.5c3.4,0,5.6-2.2,6.3-4.4c0.2-0.5,0.3-1,0.3-1.5V246.7z"/>
	<path d="M896.2,241c0-2.7-0.1-4.9-0.2-7.1h4.2l0.3,4.3h0.1c1.3-2.5,4.3-4.9,8.6-4.9c3.6,0,9.2,2.2,9.2,11.1V260h-4.8v-15
		c0-4.2-1.6-7.7-6-7.7c-3.1,0-5.6,2.2-6.4,4.9c-0.2,0.6-0.3,1.4-0.3,2.2v15.7h-4.8V241H896.2z"/>
	<path d="M931.5,226.6c0.1,1.6-1.1,2.9-3,2.9c-1.7,0-2.9-1.3-2.9-2.9c0-1.7,1.2-3,3-3C930.4,223.6,931.5,224.9,931.5,226.6z
		 M926.2,260.1V234h4.8v26.1H926.2z"/>
	<path d="M938.8,241c0-2.7-0.1-4.9-0.2-7.1h4.2l0.3,4.3h0.1c1.3-2.5,4.3-4.9,8.6-4.9c3.6,0,9.2,2.2,9.2,11.1V260h-4.8v-15
		c0-4.2-1.6-7.7-6-7.7c-3.1,0-5.6,2.2-6.4,4.9c-0.2,0.6-0.3,1.4-0.3,2.2v15.7h-4.8V241H938.8z"/>
	<path d="M991.3,233.9c-0.1,1.9-0.2,4-0.2,7.2v15.2c0,6-1.2,9.7-3.7,11.9c-2.5,2.4-6.2,3.1-9.5,3.1c-3.1,0-6.6-0.8-8.7-2.2l1.2-3.6
		c1.7,1.1,4.4,2.1,7.7,2.1c4.9,0,8.4-2.5,8.4-9.1v-2.9h-0.1c-1.5,2.4-4.3,4.4-8.3,4.4c-6.5,0-11.1-5.5-11.1-12.7
		c0-8.9,5.8-13.9,11.8-13.9c4.5,0,7,2.4,8.2,4.5h0.1l0.2-3.9h4V233.9z M986.4,244.3c0-0.8-0.1-1.5-0.3-2.2c-0.9-2.8-3.2-5-6.6-5
		c-4.5,0-7.8,3.8-7.8,9.9c0,5.1,2.6,9.4,7.7,9.4c2.9,0,5.6-1.8,6.6-4.9c0.3-0.8,0.4-1.7,0.4-2.5L986.4,244.3L986.4,244.3z"/>
</g>
<polygon class="st7" points="998.7,190.6 1039.2,185.4 1015.6,164.8 1048.5,177.7 1051.2,177.7 1054.3,115.2 1061.6,174.9 
	1064.2,176.8 1084.4,152.9 1073.2,183.1 1109.8,185.4 1076.6,190.6 1097.9,210 1066.9,197.7 1063.9,199.9 1060.5,260.7 
	1052.3,197.3 1029.8,223.1 1041.8,193.2 "/>
<polygon class="st7" points="42.2,104.3 82.6,99.1 59.1,78.6 92,91.4 94.6,91.4 97.7,29 105.1,88.6 107.7,90.5 127.9,66.6 
	116.7,96.9 153.3,99.1 120,104.3 141.3,123.8 110.3,111.4 107.3,113.7 103.9,174.5 95.7,111.1 73.3,136.8 85.2,106.9 "/>
<polygon class="st8" points="56.5,103.9 86.9,100.1 69.2,85.2 94,94.5 95.9,94.5 98.3,49.1 103.8,92.5 105.8,93.9 121,76.5 
	112.6,98.5 140.1,100.1 115.1,103.9 131.1,118 107.8,109.1 105.5,110.7 103,154.9 96.8,108.8 79.9,127.5 88.9,105.8 "/>
<polygon class="st8" points="1012.5,189.9 1042.9,186.1 1025.2,171.1 1050,180.5 1051.9,180.5 1054.3,135.1 1059.8,178.5 
	1061.8,179.8 1077,162.5 1068.5,184.4 1096.1,186.1 1071.1,189.9 1087.1,204 1063.8,195 1061.5,196.7 1059,240.8 1052.8,194.8 
	1035.9,213.5 1044.9,191.8 "/>
<g>
	<path class="st9" d="M641.3,187.5c0-8.8-8.8-8.2-13.1-13.1L598.1,140c-2.3-2.7-5.8-6.2-5.8-10.1c0-6,12.2-14.8,15.1-17.7
		c5-5,20,2,20-9.8c0-10.2-16.7-9.5-23.6-9.5S578,92.3,578,103c0,3.2,2.3,4.6,2.3,7.6c0,3.3-11.4,18.1-15.3,18.1
		c-2.6,0-2.7-4.2-2.7-6c0-17,7.9-12.4,7.9-20c0-9.9-15-9.8-21.7-9.8c-8.7,0-14.8,0.6-19.2,1.5l101,101
		C635.5,195.2,641.3,194,641.3,187.5z"/>
	<g>
		<path class="st10" d="M648.1,93.1h25c0,0,5,1.6,5,5.2c0,3.7,0,60.8,0,60.8l-30,23.8V93.1z"/>
		<polygon class="st10" points="701.1,165.2 721.1,176.6 721.1,195.5 648.1,195.5 648.1,189.2 678.1,165.2 		"/>
		<path class="st10" d="M648.1,93.1c0,0,0-18,0-21.4s-2.2-4.7-4.3-4.7c-2.2,0-14,0-14,0s-4.1-1.3-4.1-5.7s3.6-5.2,3.6-5.2
			s16.9,0,18.8,0c2,0,4.8,1.2,7.5,4.6c2.7,3.4,2.2,7.8,2.2,9.5s0,23,0,23h-9.7V93.1z"/>
	</g>
	<g>
		<path class="st11" d="M86.2,126.1c0-15,14.4-33.6,42.3-33.6c9.2,0,19.6,4,21.7,4c2,0,4-2,7.1-2c4.9,0,15.8,11.1,15.8,23.2
			c0,4.9-3.2,9.8-8.5,9.8c-9.6,0-15.3-16.4-30.2-16.4c-4.5,0-9.2,2-9.2,7.2c0,11.4,19.7,8.4,36.4,19.4c8.9,5.9,13.4,13.1,13.4,23.9
			c0,16.8-13.8,35.9-47.4,35.9c-9.5,0-25.8-2.4-34-6.9c-6.9-3.9-10.2-19.2-10.2-26.5c0-3.9,1.7-7.8,6-7.8c10.2,0,8.5,22.9,35,22.9
			c3.2,0,11.1-1.6,11.1-7.1c0-10.4-19.7-7.8-35.7-20.6C91.9,145.2,86.2,136.4,86.2,126.1z"/>
		<path class="st11" d="M193.5,116.4c0-10.8-13.4-6-13.4-15.1c0-5.8,6.3-7.1,10.8-7.1c3.6,0,7.1,0.3,10.7,0.3c20.9,0,33.6-2,39.6-2
			c19.6,0,38.4,11.4,38.4,33c0,21.5-18.1,33-38.2,33c-4.3,0-8.6-0.7-12.5-0.7c-1.7,0-2.3,0.7-2.3,2.3v8.4
			c0.4,18,10.9,10.5,10.9,18.9c0,9.4-20.7,9.8-27.2,9.8c-6,0-27.4-0.1-27.4-9.5c0-7.9,10.5-3,10.5-14.8L193.5,116.4L193.5,116.4z
			 M232,109.5c-5.6,0-5.5,1.7-5.5,4.6v21.6c0,3-1.3,6.3,6.5,6.3c9.5,0,13.2-7.2,13.2-16C246.3,117,241.7,109.5,232,109.5z"/>
		<path class="st11" d="M297.6,143.5c4.5-9.9,10.4-22.6,10.4-34c0-9.9,4.6-17.4,17.4-17.4c12.5,0,20.4,12.8,26.1,22.3
			c2.4,4.2,24.2,48.2,29.4,60c4.8,10.9,12.5,4.3,12.5,12.5c0,10.5-20.4,10.1-27.6,10.1c-20.6,0-33-0.1-33-9.1c0-6.9,8.8-4.3,8.8-9.4
			c0-6.5-3.6-7.1-26.8-7.1c-7.5,0-12,0.3-12,7.3c0,5.6,9.2,1.9,9.2,9.4c0,8.6-15.6,8.8-21.3,8.8c-20.6,0-22.5-3.9-22.5-8.5
			c0-6.8,7.8-4.8,12-9.9c3.2-3.9,6.2-10.8,8.4-15.4L297.6,143.5z M327.8,153.8c1.4,0,5.8,0.3,5.8-1.9s-4.2-9.6-5.3-11.7
			c-1.3-2.3-3.7-7.6-6.9-7.6c-3.5,0-5.9,8.6-6.5,10.2s-3,7.2-3,8.9c0,2.4,3.6,2,5.2,2h10.7V153.8z"/>
		<path class="st11" d="M406.3,124.5c0-22.3-10.9-13.1-10.9-22c0-7.9,11.2-8.9,17-8.9c3,0,5.9,0.3,8.9,0.4c2.9,0.3,5.9,0.6,8.8,0.6
			c4.6,0,9.2-0.3,14-0.6c4.6-0.1,9.4-0.4,14-0.4c16.3,0,35.1,7.2,35.1,26.4c0,8.6-4.2,17-12.2,20.9c-1.3,0.7-2.3,1.2-2.3,2.9
			c0,2.2,1.9,2.7,3.6,3.5c10.1,3.7,14.5,10.4,16.6,25.9c1.7,13.4,11.1,5.3,11.1,14.1c0,5.5-6.6,11.2-22.9,11.2
			c-23,0-25.9-13.2-30.4-32.3c-1.6-6.6-4-13.1-12-13.1c-3.2,0-4.3,0.4-4.3,9.5c0,4.2,0.3,9.9,1,14c1.2,6.6,8.5,4.6,8.5,11.5
			c0,5.2-3.6,9.1-26.9,9.1c-6.9,0-27.4,0-27.4-10.5c0-7.5,10.8-2.3,10.8-21v-41.2H406.3z M439.7,130.8c-0.3,3.7-1,6.9,3.7,6.9
			c9.4,0,12.4-5.2,12.4-14.1c0-7.1-1.7-14.3-10.1-14.3c-5.3,0-5.2,3.3-5.5,7.8L439.7,130.8z"/>
	</g>
	<g>
		<path class="st9" d="M788.4,94.5c19.3,0,22-2.9,24.3-2.9c8.2,0,11.7,14.1,11.7,20.4c0,4.8-1.9,10.4-7.5,10.4
			c-11.4,0-2.2-13.8-29.5-13.8c-16,0-14.4,2.9-14.4,19.4c0,8.4,0.4,8.6,9.2,8.6c10.9,0,2.7-16,13-16c8.4,0,8.9,16.3,8.9,21.9
			c0,5.9-1,23.2-9.6,23.2c-8.9,0,0-15.1-14.5-15.1c-6,0-5.9,5.5-5.9,10.1c0,21,1.4,20,16.6,20c29.5,0,21.2-20.3,33-20.3
			c4.6,0,6.9,5.2,6.9,9.2c0,9.8-7.8,27.4-13.5,27.4c-1,0-3.3-0.4-6.3-0.9c-3.2-0.3-7.2-0.7-12.1-0.7h-59.2c-9.5,0-9.6-4.3-9.6-6.2
			c0-7.9,9.8-1.6,10.8-16.8c1.7-26.2,1.9-23.6,0.4-49.7c-1-22-12-10.7-12-20.9c0-8.8,12.1-7.3,18-7.3L788.4,94.5L788.4,94.5z"/>
		<path class="st9" d="M860.9,143.5c4.5-9.9,10.4-22.6,10.4-34c0-9.9,4.6-17.4,17.4-17.4c12.5,0,20.4,12.8,26.1,22.3
			c2.4,4.2,24.2,48.2,29.4,60c4.8,10.9,12.5,4.3,12.5,12.5c0,10.5-20.4,10.1-27.6,10.1c-20.6,0-33-0.1-33-9.1c0-6.9,8.8-4.3,8.8-9.4
			c0-6.5-3.6-7.1-26.8-7.1c-7.5,0-12,0.3-12,7.3c0,5.6,9.2,1.9,9.2,9.4c0,8.6-15.6,8.8-21.3,8.8c-20.6,0-22.5-3.9-22.5-8.5
			c0-6.8,7.8-4.8,12-9.9c3.2-3.9,6.2-10.8,8.4-15.4L860.9,143.5z M891.1,153.8c1.4,0,5.8,0.3,5.8-1.9s-4.2-9.6-5.3-11.7
			c-1.3-2.3-3.7-7.6-6.9-7.6c-3.5,0-5.9,8.6-6.5,10.2s-3,7.2-3,8.9c0,2.4,3.6,2,5.2,2h10.7V153.8z"/>
		<path class="st9" d="M1035.7,129.2c1.7,1.4,6.3,5.6,8.9,5.6c3.6,0,3.7-5.9,3.7-8.4c0-3.6-0.1-9.8-1.3-13.1c-2-6-9.6-3.9-9.6-11.7
			c0-9.2,14.7-8.8,20.7-8.8c6.3,0,22-0.7,22,9.2c0,8.2-7.6,5.2-10.1,11.8c-1.9,5.2-1.9,14.1-1.9,19.6v37.3c0,6.5,0.9,26.2-8.8,26.2
			c-2.9,0-5.3-1.7-7.5-3.6l-44.5-39.9c-2-1.9-5.8-5.3-8.8-5.3c-4.5,0-4.6,9.4-4.6,12.4c0,4,0.1,9.4,1,13.1c2.2,9.2,9.8,5.8,9.8,12.8
			c0,9.6-14.8,10.5-21.6,10.5c-6.6,0-21.5-0.9-21.5-10.2c0-7.6,8.4-4.6,9.8-13.8c1-6.2,1.3-15.3,1.3-21.7c0-10.4,0-20.9-1.6-31.2
			c-2.3-14.4-12.7-8.8-12.7-17.4c0-10.2,19.4-9.6,25.9-9.6c8.9,0,10.5,0.6,17,6.3L1035.7,129.2z"/>
	</g>
	<path class="st12" d="M518.2,103.3c0,8.8,7.6,3.5,9.5,15.8c1.6,8.8,1.4,19.2,1.4,28.1c0,8.2-0.1,17.4-1.4,25.5
		c-1.7,12-8.9,8.1-8.9,15.6c0,4.9,2.9,8.8,25.6,8.8c25.3,0,28.7-4.3,28.7-8.9c0-7.1-9.1-7.6-9.1-14.5v-3c0-4.2,0.6-7.9,4.3-7.9
		c3.3,0,11.8,10.5,14.3,13.4l9.8,12c5.8,7.1,5.9,7.5,11.5,7.5h18.2L523,96.6C517.8,98.9,518.2,102,518.2,103.3z"/>
</g>
<polygon class="st13" points="56.5,103.6 86.9,99.8 69.2,84.9 94,94.2 95.9,94.2 98.3,48.8 103.8,92.2 105.8,93.6 121,76.2 
	112.6,98.2 140.1,99.8 115.1,103.6 131.1,117.7 107.8,108.8 105.5,110.4 103,154.6 96.8,108.5 79.9,127.2 88.9,105.5 "/>
<polygon class="st13" points="1012.5,189.9 1042.9,186.1 1025.2,171.1 1050,180.5 1051.9,180.5 1054.3,135.1 1059.8,178.5 
	1061.8,179.8 1077,162.5 1068.5,184.4 1096.1,186.1 1071.1,189.9 1087.1,204 1063.8,195 1061.5,196.7 1059,240.8 1052.8,194.8 
	1035.9,213.5 1044.9,191.8 "/>
<g>
	<path class="st14" d="M181.3,266.1c-4.9-1.3-9.7-2.8-13.9-4.2c-0.8-0.3-1.5-0.5-2.2-0.5c-8.6-0.3-16-6.7-16-18.4
		c0-11.7,7.1-19.2,17-19.2s16.3,7.7,16.3,18.4c0,9.3-4.3,15.3-10.4,17.4v0.2c3.6,0.9,7.6,1.8,10.6,2.3L181.3,266.1z M177.5,242.3
		c0-7.3-3.8-14.8-11.5-14.8c-7.9,0-11.8,7.3-11.8,15.2c-0.1,7.7,4.2,14.7,11.6,14.7C173.2,257.5,177.5,250.7,177.5,242.3z"/>
	<path class="st14" d="M210.4,253.6c0,2.7,0.1,5.1,0.2,7.1h-4.2l-0.3-4.3H206c-1.2,2.1-4,4.9-8.6,4.9c-4.1,0-9-2.3-9-11.4v-15.3h4.8
		V249c0,5,1.5,8.3,5.8,8.3c3.2,0,5.4-2.2,6.3-4.3c0.3-0.7,0.4-1.6,0.4-2.4v-16h4.8v19H210.4z"/>
	<path class="st14" d="M232.8,260.7l-0.4-3.3h-0.2c-1.5,2.1-4.3,3.9-8,3.9c-5.3,0-8-3.7-8-7.5c0-6.3,5.6-9.8,15.7-9.7v-0.5
		c0-2.2-0.6-6-5.9-6c-2.4,0-5,0.8-6.8,1.9l-1.1-3.1c2.2-1.4,5.3-2.3,8.6-2.3c8,0,9.9,5.5,9.9,10.7v9.8c0,2.3,0.1,4.5,0.4,6.3h-4.2
		V260.7z M232.1,247.4c-5.2-0.1-11.1,0.8-11.1,5.9c0,3.1,2.1,4.5,4.5,4.5c3.4,0,5.6-2.2,6.3-4.4c0.2-0.5,0.3-1,0.3-1.5V247.4z"/>
	<path class="st14" d="M244.3,222.4h4.8v38.3h-4.8V222.4z"/>
	<path class="st14" d="M262.3,227.2c0.1,1.6-1.1,2.9-3,2.9c-1.7,0-2.9-1.3-2.9-2.9c0-1.7,1.2-3,3-3
		C261.2,224.3,262.3,225.6,262.3,227.2z M257.1,260.7v-26.1h4.8v26.1H257.1z"/>
	<path class="st14" d="M275.4,227.1v7.5h6.8v3.6h-6.8v14.1c0,3.2,0.9,5.1,3.6,5.1c1.2,0,2.2-0.2,2.8-0.3l0.2,3.6
		c-0.9,0.4-2.4,0.6-4.2,0.6c-2.2,0-4-0.7-5.1-2c-1.4-1.4-1.8-3.7-1.8-6.8v-14.3h-4.1v-3.6h4.1v-6.3L275.4,227.1z"/>
	<path class="st14" d="M289.8,234.6l5.7,15.4c0.6,1.7,1.2,3.8,1.7,5.3h0.1c0.5-1.6,1-3.6,1.7-5.5l5.2-15.3h5l-7.1,18.6
		c-3.4,9-5.7,13.6-9,16.4c-2.3,2.1-4.6,2.9-5.8,3.1l-1.2-4c1.2-0.4,2.8-1.1,4.2-2.3c1.3-1,2.9-2.9,4-5.3c0.2-0.5,0.4-0.9,0.4-1.1
		c0-0.3-0.1-0.6-0.3-1.2l-9.7-24.1H289.8z"/>
	<path class="st14" d="M350.5,259.5c-1.7,0.9-5.2,1.7-9.6,1.7c-10.3,0-18-6.5-18-18.4c0-11.4,7.7-19.1,19-19.1c4.5,0,7.4,1,8.6,1.6
		l-1.1,3.8c-1.8-0.9-4.3-1.5-7.3-1.5c-8.5,0-14.2,5.5-14.2,15c0,8.9,5.1,14.6,14,14.6c2.9,0,5.8-0.6,7.7-1.5L350.5,259.5z"/>
	<path class="st14" d="M379.3,247.4c0,9.7-6.7,13.9-13,13.9c-7.1,0-12.5-5.2-12.5-13.4c0-8.7,5.7-13.9,13-13.9
		C374.2,234,379.3,239.4,379.3,247.4z M358.6,247.7c0,5.7,3.3,10,7.9,10c4.5,0,7.9-4.3,7.9-10.2c0-4.4-2.2-10-7.8-10
		S358.6,242.7,358.6,247.7z"/>
	<path class="st14" d="M385.3,241.6c0-2.7-0.1-4.9-0.2-7.1h4.2l0.2,4.2h0.2c1.5-2.5,3.9-4.8,8.2-4.8c3.6,0,6.3,2.2,7.4,5.2h0.1
		c0.8-1.5,1.8-2.6,2.9-3.4c1.6-1.2,3.3-1.8,5.8-1.8c3.5,0,8.6,2.3,8.6,11.3v15.4H418v-14.8c0-5-1.8-8-5.7-8c-2.7,0-4.8,2-5.6,4.3
		c-0.2,0.6-0.4,1.5-0.4,2.4v16.1h-4.6V245c0-4.2-1.8-7.2-5.5-7.2c-3,0-5.1,2.4-5.9,4.8c-0.3,0.7-0.4,1.5-0.4,2.3v15.8h-4.6V241.6z"
		/>
	<path class="st14" d="M430.3,241.6c0-2.7-0.1-4.9-0.2-7.1h4.2l0.2,4.2h0.2c1.5-2.5,3.9-4.8,8.2-4.8c3.6,0,6.3,2.2,7.4,5.2h0.1
		c0.8-1.5,1.8-2.6,2.9-3.4c1.6-1.2,3.3-1.8,5.8-1.8c3.5,0,8.6,2.3,8.6,11.3v15.4H463v-14.8c0-5-1.8-8-5.7-8c-2.7,0-4.8,2-5.6,4.3
		c-0.2,0.6-0.4,1.5-0.4,2.4v16.1h-4.6V245c0-4.2-1.8-7.2-5.5-7.2c-3,0-5.1,2.4-5.9,4.8c-0.3,0.7-0.4,1.5-0.4,2.3v15.8h-4.6V241.6z"
		/>
	<path class="st14" d="M478,248.5c0.1,6.4,4.2,9.1,9,9.1c3.4,0,5.5-0.6,7.2-1.4l0.8,3.4c-1.7,0.8-4.5,1.6-8.7,1.6
		c-8,0-12.9-5.3-12.9-13.2c0-7.9,4.6-14.1,12.3-14.1c8.5,0,10.8,7.5,10.8,12.3c0,1-0.1,1.7-0.2,2.2H478V248.5z M492,245.1
		c0.1-3-1.2-7.7-6.6-7.7c-4.8,0-6.9,4.4-7.3,7.7H492z"/>
	<path class="st14" d="M502.4,242.7c0-3.1-0.1-5.7-0.2-8.2h4.2l0.2,5.1h0.2c1.2-3.5,4.1-5.7,7.2-5.7c0.5,0,0.9,0.1,1.4,0.2v4.5
		c-0.5-0.1-1-0.2-1.6-0.2c-3.3,0-5.7,2.5-6.4,6.1c-0.1,0.6-0.2,1.4-0.2,2.2v13.9h-4.7v-17.9H502.4z"/>
	<path class="st14" d="M538.2,259.7c-1.2,0.6-4,1.5-7.5,1.5c-7.9,0-13-5.3-13-13.3s5.5-13.9,14-13.9c2.8,0,5.3,0.7,6.6,1.4l-1.1,3.7
		c-1.1-0.6-2.9-1.2-5.5-1.2c-6,0-9.2,4.4-9.2,9.9c0,6,3.9,9.8,9.1,9.8c2.7,0,4.5-0.7,5.8-1.3L538.2,259.7z"/>
	<path class="st14" d="M549,227.2c0.1,1.6-1.1,2.9-3,2.9c-1.7,0-2.9-1.3-2.9-2.9c0-1.7,1.2-3,3-3C547.9,224.3,549,225.6,549,227.2z
		 M543.7,260.7v-26.1h4.8v26.1H543.7z"/>
	<path class="st14" d="M570.8,260.7l-0.4-3.3h-0.2c-1.5,2.1-4.3,3.9-8,3.9c-5.3,0-8-3.7-8-7.5c0-6.3,5.6-9.8,15.7-9.7v-0.5
		c0-2.2-0.6-6-5.9-6c-2.4,0-5,0.8-6.8,1.9l-1.1-3.1c2.2-1.4,5.3-2.3,8.6-2.3c8,0,9.9,5.5,9.9,10.7v9.8c0,2.3,0.1,4.5,0.4,6.3h-4.2
		V260.7z M570.1,247.4c-5.2-0.1-11.1,0.8-11.1,5.9c0,3.1,2.1,4.5,4.5,4.5c3.4,0,5.6-2.2,6.3-4.4c0.2-0.5,0.3-1,0.3-1.5V247.4z"/>
	<path class="st14" d="M582.4,222.4h4.8v38.3h-4.8V222.4z"/>
	<path class="st14" d="M629.5,260.7c-1-1-2-2.1-3.4-3.6c-3.1,2.9-6.6,4.2-10.6,4.2c-7.1,0-11.2-4.8-11.2-10.2c0-5,3-8.4,7.1-10.6
		v-0.2c-1.9-2.4-3-5-3-7.6c0-4.4,3.2-9,9.2-9c4.5,0,8,3,8,7.7c0,3.8-2.2,6.9-8,9.7v0.2c3.1,3.6,6.5,7.6,8.9,10.2
		c1.7-2.5,2.8-6,3.5-10.6h4.3c-1,5.7-2.5,10.3-5.2,13.4c1.9,2.1,3.8,4.1,6,6.4H629.5z M623.8,254.4c-2.2-2.4-6.2-6.8-10.3-11.4
		c-1.9,1.2-4.7,3.6-4.7,7.4c0,4.2,3.1,7.3,7.5,7.3C619.4,257.7,622.1,256.3,623.8,254.4z M612.7,232.3c0,2.6,1.2,4.6,2.8,6.5
		c3.7-2.1,6-4,6-7.1c0-2.2-1.2-4.7-4.2-4.7C614.3,227,612.7,229.4,612.7,232.3z"/>
	<path class="st14" d="M655.6,224.3v15.2h17.6v-15.2h4.8v36.4h-4.8v-17.1h-17.6v17.1h-4.7v-36.4H655.6z"/>
	<path class="st14" d="M709.6,247.4c0,9.7-6.7,13.9-13,13.9c-7.1,0-12.5-5.2-12.5-13.4c0-8.7,5.7-13.9,13-13.9
		C704.5,234,709.6,239.4,709.6,247.4z M688.8,247.7c0,5.7,3.3,10,7.9,10c4.5,0,7.9-4.3,7.9-10.2c0-4.4-2.2-10-7.8-10
		S688.8,242.7,688.8,247.7z"/>
	<path class="st14" d="M715.6,241.6c0-2.7-0.1-4.9-0.2-7.1h4.2l0.2,4.2h0.2c1.5-2.5,3.9-4.8,8.2-4.8c3.6,0,6.3,2.2,7.4,5.2h0.1
		c0.8-1.5,1.8-2.6,2.9-3.4c1.6-1.2,3.3-1.8,5.8-1.8c3.5,0,8.6,2.3,8.6,11.3v15.4h-4.6v-14.8c0-5-1.8-8-5.7-8c-2.7,0-4.8,2-5.6,4.3
		c-0.2,0.6-0.4,1.5-0.4,2.4v16.1h-4.6V245c0-4.2-1.8-7.2-5.5-7.2c-3,0-5.1,2.4-5.9,4.8c-0.3,0.7-0.4,1.5-0.4,2.3v15.8h-4.6v-19.1
		H715.6z"/>
	<path class="st14" d="M763.2,248.5c0.1,6.4,4.2,9.1,9,9.1c3.4,0,5.5-0.6,7.2-1.4l0.8,3.4c-1.7,0.8-4.5,1.6-8.7,1.6
		c-8,0-12.9-5.3-12.9-13.2c0-7.9,4.6-14.1,12.3-14.1c8.5,0,10.8,7.5,10.8,12.3c0,1-0.1,1.7-0.2,2.2h-18.3V248.5z M777.2,245.1
		c0.1-3-1.2-7.7-6.6-7.7c-4.8,0-6.9,4.4-7.3,7.7H777.2z"/>
	<path class="st14" d="M824.7,259.5c-1.7,0.9-5.2,1.7-9.6,1.7c-10.3,0-18-6.5-18-18.4c0-11.4,7.7-19.1,19-19.1c4.5,0,7.4,1,8.6,1.6
		l-1.1,3.8c-1.8-0.9-4.3-1.5-7.3-1.5c-8.5,0-14.2,5.5-14.2,15c0,8.9,5.1,14.6,14,14.6c2.9,0,5.8-0.6,7.7-1.5L824.7,259.5z"/>
	<path class="st14" d="M830.4,222.4h4.8v38.3h-4.8V222.4z"/>
	<path class="st14" d="M845.8,248.5c0.1,6.4,4.2,9.1,9,9.1c3.4,0,5.5-0.6,7.2-1.4l0.8,3.4c-1.7,0.8-4.5,1.6-8.7,1.6
		c-8,0-12.9-5.3-12.9-13.2c0-7.9,4.6-14.1,12.3-14.1c8.5,0,10.8,7.5,10.8,12.3c0,1-0.1,1.7-0.2,2.2h-18.3V248.5z M859.7,245.1
		c0.1-3-1.2-7.7-6.6-7.7c-4.8,0-6.9,4.4-7.3,7.7H859.7z"/>
	<path class="st14" d="M884.7,260.7l-0.4-3.3h-0.2c-1.5,2.1-4.3,3.9-8,3.9c-5.3,0-8-3.7-8-7.5c0-6.3,5.6-9.8,15.7-9.7v-0.5
		c0-2.2-0.6-6-5.9-6c-2.4,0-5,0.8-6.8,1.9l-1.1-3.1c2.2-1.4,5.3-2.3,8.6-2.3c8,0,9.9,5.5,9.9,10.7v9.8c0,2.3,0.1,4.5,0.4,6.3h-4.2
		V260.7z M884,247.4c-5.2-0.1-11.1,0.8-11.1,5.9c0,3.1,2.1,4.5,4.5,4.5c3.4,0,5.6-2.2,6.3-4.4c0.2-0.5,0.3-1,0.3-1.5V247.4z"/>
	<path class="st14" d="M896.2,241.6c0-2.7-0.1-4.9-0.2-7.1h4.2l0.3,4.3h0.1c1.3-2.5,4.3-4.9,8.6-4.9c3.6,0,9.2,2.2,9.2,11.1v15.6
		h-4.8v-15.1c0-4.2-1.6-7.7-6-7.7c-3.1,0-5.6,2.2-6.4,4.9c-0.2,0.6-0.3,1.4-0.3,2.2v15.7h-4.8v-19H896.2z"/>
	<path class="st14" d="M931.5,227.2c0.1,1.6-1.1,2.9-3,2.9c-1.7,0-2.9-1.3-2.9-2.9c0-1.7,1.2-3,3-3
		C930.4,224.3,931.5,225.6,931.5,227.2z M926.2,260.7v-26.1h4.8v26.1H926.2z"/>
	<path class="st14" d="M938.8,241.6c0-2.7-0.1-4.9-0.2-7.1h4.2l0.3,4.3h0.1c1.3-2.5,4.3-4.9,8.6-4.9c3.6,0,9.2,2.2,9.2,11.1v15.6
		h-4.8v-15.1c0-4.2-1.6-7.7-6-7.7c-3.1,0-5.6,2.2-6.4,4.9c-0.2,0.6-0.3,1.4-0.3,2.2v15.7h-4.8v-19H938.8z"/>
	<path class="st14" d="M991.3,234.6c-0.1,1.9-0.2,4-0.2,7.2V257c0,6-1.2,9.7-3.7,11.9c-2.5,2.4-6.2,3.1-9.5,3.1
		c-3.1,0-6.6-0.8-8.7-2.2l1.2-3.6c1.7,1.1,4.4,2.1,7.7,2.1c4.9,0,8.4-2.5,8.4-9.1v-2.9h-0.1c-1.5,2.4-4.3,4.4-8.3,4.4
		c-6.5,0-11.1-5.5-11.1-12.7c0-8.9,5.8-13.9,11.8-13.9c4.5,0,7,2.4,8.2,4.5h0.1l0.2-3.9h4V234.6z M986.4,244.9
		c0-0.8-0.1-1.5-0.3-2.2c-0.9-2.8-3.2-5-6.6-5c-4.5,0-7.8,3.8-7.8,9.9c0,5.1,2.6,9.4,7.7,9.4c2.9,0,5.6-1.8,6.6-4.9
		c0.3-0.8,0.4-1.7,0.4-2.5L986.4,244.9L986.4,244.9z"/>
</g>
<polygon points="998.7,189.9 1039.2,184.7 1015.6,164.1 1048.5,177 1051.2,177 1054.3,114.5 1061.6,174.2 1064.2,176.1 
	1084.4,152.2 1073.2,182.4 1109.8,184.7 1076.6,189.9 1097.9,209.3 1066.9,197 1063.9,199.2 1060.5,260 1052.3,196.6 1029.8,222.4 
	1041.8,192.5 "/>
<polygon points="42.2,103.7 82.6,98.4 59.1,77.9 92,90.8 94.6,90.8 97.7,28.3 105.1,88 107.7,89.8 127.9,66 116.7,96.2 153.3,98.4 
	120,103.7 141.3,123.1 110.3,110.8 107.3,113 103.9,173.8 95.7,110.4 73.3,136.2 85.2,106.3 "/>
<polygon class="st1" points="56.5,103.2 86.9,99.4 69.2,84.5 94,93.9 95.9,93.9 98.3,48.4 103.8,91.8 105.8,93.2 121,75.8 
	112.6,97.8 140.1,99.4 115.1,103.2 131.1,117.3 107.8,108.4 105.5,110 103,154.2 96.8,108.1 79.9,126.8 88.9,105.1 "/>
<polygon class="st1" points="1012.5,189.2 1042.9,185.4 1025.2,170.5 1050,179.8 1051.9,179.8 1054.3,134.4 1059.8,177.8 
	1061.8,179.1 1077,161.8 1068.5,183.8 1096.1,185.4 1071.1,189.2 1087.1,203.3 1063.8,194.4 1061.5,196 1059,240.2 1052.8,194.1 
	1035.9,212.8 1044.9,191.1 "/>
<g>
	<path class="st2" d="M641.3,186.9c0-8.8-8.8-8.2-13.1-13.1l-30.1-34.4c-2.3-2.7-5.8-6.2-5.8-10.1c0-6,12.2-14.8,15.1-17.7
		c5-5,20,2,20-9.8c0-10.2-16.7-9.5-23.6-9.5s-25.9-0.6-25.9,10.1c0,3.2,2.3,4.6,2.3,7.6c0,3.3-11.4,18.1-15.3,18.1
		c-2.6,0-2.7-4.2-2.7-6c0-17,7.9-12.4,7.9-20c0-9.9-15-9.8-21.7-9.8c-8.7,0-14.8,0.6-19.2,1.5l101,101
		C635.5,194.6,641.3,193.3,641.3,186.9z"/>
	<g>
		<path class="st3" d="M648.1,92.4h25c0,0,5,1.6,5,5.2c0,3.7,0,60.8,0,60.8l-30,23.8V92.4z"/>
		<polygon class="st3" points="701.1,164.5 721.1,176 721.1,194.8 648.1,194.8 648.1,188.5 678.1,164.5 		"/>
		<path class="st3" d="M648.1,92.4c0,0,0-18,0-21.4s-2.2-4.7-4.3-4.7c-2.2,0-14,0-14,0s-4.1-1.3-4.1-5.7s3.6-5.2,3.6-5.2
			s16.9,0,18.8,0c2,0,4.8,1.2,7.5,4.6c2.7,3.4,2.2,7.8,2.2,9.5c0,1.8,0,23,0,23h-9.7V92.4z"/>
	</g>
	<g>
		<path class="st4" d="M86.2,125.4c0-15,14.4-33.6,42.3-33.6c9.2,0,19.6,4,21.7,4c2,0,4-2,7.1-2c4.9,0,15.8,11.1,15.8,23.2
			c0,4.9-3.2,9.8-8.5,9.8c-9.6,0-15.3-16.4-30.2-16.4c-4.5,0-9.2,2-9.2,7.2c0,11.4,19.7,8.4,36.4,19.4c8.9,5.9,13.4,13.1,13.4,23.9
			c0,16.8-13.8,35.9-47.4,35.9c-9.5,0-25.8-2.4-34-6.9c-6.9-3.9-10.2-19.2-10.2-26.5c0-3.9,1.7-7.8,6-7.8c10.2,0,8.5,22.9,35,22.9
			c3.2,0,11.1-1.6,11.1-7.1c0-10.4-19.7-7.8-35.7-20.6C91.9,144.5,86.2,135.7,86.2,125.4z"/>
		<path class="st4" d="M193.5,115.7c0-10.8-13.4-6-13.4-15.1c0-5.8,6.3-7.1,10.8-7.1c3.6,0,7.1,0.3,10.7,0.3c20.9,0,33.6-2,39.6-2
			c19.6,0,38.4,11.4,38.4,33c0,21.5-18.1,33-38.2,33c-4.3,0-8.6-0.7-12.5-0.7c-1.7,0-2.3,0.7-2.3,2.3v8.4
			c0.4,18,10.9,10.5,10.9,18.9c0,9.4-20.7,9.8-27.2,9.8c-6,0-27.4-0.1-27.4-9.5c0-7.9,10.5-3,10.5-14.8L193.5,115.7L193.5,115.7z
			 M232,108.8c-5.6,0-5.5,1.7-5.5,4.6V135c0,3-1.3,6.3,6.5,6.3c9.5,0,13.2-7.2,13.2-16C246.3,116.3,241.7,108.8,232,108.8z"/>
		<path class="st4" d="M297.6,142.8c4.5-9.9,10.4-22.6,10.4-34c0-9.9,4.6-17.4,17.4-17.4c12.5,0,20.4,12.8,26.1,22.3
			c2.4,4.2,24.2,48.2,29.4,60c4.8,10.9,12.5,4.3,12.5,12.5c0,10.5-20.4,10.1-27.6,10.1c-20.6,0-33-0.1-33-9.1c0-6.9,8.8-4.3,8.8-9.4
			c0-6.5-3.6-7.1-26.8-7.1c-7.5,0-12,0.3-12,7.3c0,5.6,9.2,1.9,9.2,9.4c0,8.6-15.6,8.8-21.3,8.8c-20.6,0-22.5-3.9-22.5-8.5
			c0-6.8,7.8-4.8,12-9.9c3.2-3.9,6.2-10.8,8.4-15.4L297.6,142.8z M327.8,153.2c1.4,0,5.8,0.3,5.8-1.9s-4.2-9.6-5.3-11.7
			c-1.3-2.3-3.7-7.6-6.9-7.6c-3.5,0-5.9,8.6-6.5,10.2s-3,7.2-3,8.9c0,2.4,3.6,2,5.2,2h10.7V153.2z"/>
		<path class="st4" d="M406.3,123.8c0-22.3-10.9-13.1-10.9-22c0-7.9,11.2-8.9,17-8.9c3,0,5.9,0.3,8.9,0.4c2.9,0.3,5.9,0.6,8.8,0.6
			c4.6,0,9.2-0.3,14-0.6c4.6-0.1,9.4-0.4,14-0.4c16.3,0,35.1,7.2,35.1,26.4c0,8.6-4.2,17-12.2,20.9c-1.3,0.7-2.3,1.2-2.3,2.9
			c0,2.2,1.9,2.7,3.6,3.5c10.1,3.7,14.5,10.4,16.6,25.9c1.7,13.4,11.1,5.3,11.1,14.1c0,5.5-6.6,11.2-22.9,11.2
			c-23,0-25.9-13.2-30.4-32.3c-1.6-6.6-4-13.1-12-13.1c-3.2,0-4.3,0.4-4.3,9.5c0,4.2,0.3,9.9,1,14c1.2,6.6,8.5,4.6,8.5,11.5
			c0,5.2-3.6,9.1-26.9,9.1c-6.9,0-27.4,0-27.4-10.5c0-7.5,10.8-2.3,10.8-21v-41.2H406.3z M439.7,130.1c-0.3,3.7-1,6.9,3.7,6.9
			c9.4,0,12.4-5.2,12.4-14.1c0-7.1-1.7-14.3-10.1-14.3c-5.3,0-5.2,3.3-5.5,7.8L439.7,130.1z"/>
	</g>
	<g>
		<path class="st2" d="M788.4,93.8c19.3,0,22-2.9,24.3-2.9c8.2,0,11.7,14.1,11.7,20.4c0,4.8-1.9,10.4-7.5,10.4
			c-11.4,0-2.2-13.8-29.5-13.8c-16,0-14.4,2.9-14.4,19.4c0,8.4,0.4,8.6,9.2,8.6c10.9,0,2.7-16,13-16c8.4,0,8.9,16.3,8.9,21.9
			c0,5.9-1,23.2-9.6,23.2c-8.9,0,0-15.1-14.5-15.1c-6,0-5.9,5.5-5.9,10.1c0,21,1.4,20,16.6,20c29.5,0,21.2-20.3,33-20.3
			c4.6,0,6.9,5.2,6.9,9.2c0,9.8-7.8,27.4-13.5,27.4c-1,0-3.3-0.4-6.3-0.9c-3.2-0.3-7.2-0.7-12.1-0.7h-59.2c-9.5,0-9.6-4.3-9.6-6.2
			c0-7.9,9.8-1.6,10.8-16.8c1.7-26.2,1.9-23.6,0.4-49.7c-1-22-12-10.7-12-20.9c0-8.8,12.1-7.3,18-7.3L788.4,93.8L788.4,93.8z"/>
		<path class="st2" d="M860.9,142.8c4.5-9.9,10.4-22.6,10.4-34c0-9.9,4.6-17.4,17.4-17.4c12.5,0,20.4,12.8,26.1,22.3
			c2.4,4.2,24.2,48.2,29.4,60c4.8,10.9,12.5,4.3,12.5,12.5c0,10.5-20.4,10.1-27.6,10.1c-20.6,0-33-0.1-33-9.1c0-6.9,8.8-4.3,8.8-9.4
			c0-6.5-3.6-7.1-26.8-7.1c-7.5,0-12,0.3-12,7.3c0,5.6,9.2,1.9,9.2,9.4c0,8.6-15.6,8.8-21.3,8.8c-20.6,0-22.5-3.9-22.5-8.5
			c0-6.8,7.8-4.8,12-9.9c3.2-3.9,6.2-10.8,8.4-15.4L860.9,142.8z M891.1,153.2c1.4,0,5.8,0.3,5.8-1.9s-4.2-9.6-5.3-11.7
			c-1.3-2.3-3.7-7.6-6.9-7.6c-3.5,0-5.9,8.6-6.5,10.2s-3,7.2-3,8.9c0,2.4,3.6,2,5.2,2h10.7V153.2z"/>
		<path class="st2" d="M1035.7,128.5c1.7,1.4,6.3,5.6,8.9,5.6c3.6,0,3.7-5.9,3.7-8.4c0-3.6-0.1-9.8-1.3-13.1c-2-6-9.6-3.9-9.6-11.7
			c0-9.2,14.7-8.8,20.7-8.8c6.3,0,22-0.7,22,9.2c0,8.2-7.6,5.2-10.1,11.8c-1.9,5.2-1.9,14.1-1.9,19.6V170c0,6.5,0.9,26.2-8.8,26.2
			c-2.9,0-5.3-1.7-7.5-3.6l-44.5-39.9c-2-1.9-5.8-5.3-8.8-5.3c-4.5,0-4.6,9.4-4.6,12.4c0,4,0.1,9.4,1,13.1c2.2,9.2,9.8,5.8,9.8,12.8
			c0,9.6-14.8,10.5-21.6,10.5c-6.6,0-21.5-0.9-21.5-10.2c0-7.6,8.4-4.6,9.8-13.8c1-6.2,1.3-15.3,1.3-21.7c0-10.4,0-20.9-1.6-31.2
			c-2.3-14.4-12.7-8.8-12.7-17.4c0-10.2,19.4-9.6,25.9-9.6c8.9,0,10.5,0.6,17,6.3L1035.7,128.5z"/>
	</g>
	<path class="st5" d="M518.2,102.6c0,8.8,7.6,3.5,9.5,15.8c1.6,8.8,1.4,19.2,1.4,28.1c0,8.2-0.1,17.4-1.4,25.5
		c-1.7,12-8.9,8.1-8.9,15.6c0,4.9,2.9,8.8,25.6,8.8c25.3,0,28.7-4.3,28.7-8.9c0-7.1-9.1-7.6-9.1-14.5v-3c0-4.2,0.6-7.9,4.3-7.9
		c3.3,0,11.8,10.5,14.3,13.4l9.8,12c5.8,7.1,5.9,7.5,11.5,7.5h18.2L523,95.9C517.8,98.2,518.2,101.3,518.2,102.6z"/>
</g>
<polygon class="st6" points="56.5,102.9 86.9,99.1 69.2,84.2 94,93.6 95.9,93.6 98.3,48.2 103.8,91.5 105.8,92.9 121,75.6 
	112.6,97.5 140.1,99.1 115.1,102.9 131.1,117.1 107.8,108.1 105.5,109.7 103,153.9 96.8,107.8 79.9,126.6 88.9,104.8 "/>
<polygon class="st6" points="1012.5,189.2 1042.9,185.4 1025.2,170.5 1050,179.8 1051.9,179.8 1054.3,134.4 1059.8,177.8 
	1061.8,179.1 1077,161.8 1068.5,183.8 1096.1,185.4 1071.1,189.2 1087.1,203.3 1063.8,194.4 1061.5,196 1059,240.2 1052.8,194.1 
	1035.9,212.8 1044.9,191.1 "/>
<g>
	<path class="st15" d="M181.3,265.4c-4.9-1.3-9.7-2.8-13.9-4.2c-0.8-0.3-1.5-0.5-2.2-0.5c-8.6-0.3-16-6.7-16-18.4
		c0-11.7,7.1-19.2,17-19.2s16.3,7.7,16.3,18.4c0,9.3-4.3,15.3-10.4,17.4v0.2c3.6,0.9,7.6,1.8,10.6,2.3L181.3,265.4z M177.5,241.7
		c0-7.3-3.8-14.8-11.5-14.8c-7.9,0-11.8,7.3-11.8,15.2c-0.1,7.7,4.2,14.7,11.6,14.7C173.2,256.8,177.5,250,177.5,241.7z"/>
	<path class="st15" d="M210.4,252.9c0,2.7,0.1,5.1,0.2,7.1h-4.2l-0.3-4.3H206c-1.2,2.1-4,4.9-8.6,4.9c-4.1,0-9-2.3-9-11.4v-15.3h4.8
		v14.5c0,5,1.5,8.3,5.8,8.3c3.2,0,5.4-2.2,6.3-4.3c0.3-0.7,0.4-1.6,0.4-2.4v-16h4.8v18.9H210.4z"/>
	<path class="st15" d="M232.8,260l-0.4-3.3h-0.2c-1.5,2.1-4.3,3.9-8,3.9c-5.3,0-8-3.7-8-7.5c0-6.3,5.6-9.8,15.7-9.7v-0.5
		c0-2.2-0.6-6-5.9-6c-2.4,0-5,0.8-6.8,1.9l-1.1-3.1c2.2-1.4,5.3-2.3,8.6-2.3c8,0,9.9,5.5,9.9,10.7v9.8c0,2.3,0.1,4.5,0.4,6.3h-4.2
		V260z M232.1,246.7c-5.2-0.1-11.1,0.8-11.1,5.9c0,3.1,2.1,4.5,4.5,4.5c3.4,0,5.6-2.2,6.3-4.4c0.2-0.5,0.3-1,0.3-1.5V246.7z"/>
	<path class="st15" d="M244.3,221.7h4.8V260h-4.8V221.7z"/>
	<path class="st15" d="M262.3,226.6c0.1,1.6-1.1,2.9-3,2.9c-1.7,0-2.9-1.3-2.9-2.9c0-1.7,1.2-3,3-3
		C261.2,223.6,262.3,224.9,262.3,226.6z M257.1,260v-26.1h4.8V260H257.1z"/>
	<path class="st15" d="M275.4,226.4v7.5h6.8v3.6h-6.8v14.1c0,3.2,0.9,5.1,3.6,5.1c1.2,0,2.2-0.2,2.8-0.3l0.2,3.6
		c-0.9,0.4-2.4,0.6-4.2,0.6c-2.2,0-4-0.7-5.1-2c-1.4-1.4-1.8-3.7-1.8-6.8v-14.3h-4.1v-3.6h4.1v-6.3L275.4,226.4z"/>
	<path class="st15" d="M289.8,233.9l5.7,15.4c0.6,1.7,1.2,3.8,1.7,5.3h0.1c0.5-1.6,1-3.6,1.7-5.5l5.2-15.3h5l-7.1,18.6
		c-3.4,9-5.7,13.6-9,16.4c-2.3,2.1-4.6,2.9-5.8,3.1l-1.2-4c1.2-0.4,2.8-1.1,4.2-2.3c1.3-1,2.9-2.9,4-5.3c0.2-0.5,0.4-0.9,0.4-1.1
		c0-0.3-0.1-0.6-0.3-1.2l-9.7-24.1H289.8z"/>
	<path class="st15" d="M350.5,258.8c-1.7,0.9-5.2,1.7-9.6,1.7c-10.3,0-18-6.5-18-18.4c0-11.4,7.7-19.1,19-19.1c4.5,0,7.4,1,8.6,1.6
		l-1.1,3.8c-1.8-0.9-4.3-1.5-7.3-1.5c-8.5,0-14.2,5.5-14.2,15c0,8.9,5.1,14.6,14,14.6c2.9,0,5.8-0.6,7.7-1.5L350.5,258.8z"/>
	<path class="st15" d="M379.3,246.8c0,9.7-6.7,13.9-13,13.9c-7.1,0-12.5-5.2-12.5-13.4c0-8.7,5.7-13.9,13-13.9
		C374.2,233.3,379.3,238.8,379.3,246.8z M358.6,247c0,5.7,3.3,10,7.9,10c4.5,0,7.9-4.3,7.9-10.2c0-4.4-2.2-10-7.8-10
		S358.6,242.1,358.6,247z"/>
	<path class="st15" d="M385.3,241c0-2.7-0.1-4.9-0.2-7.1h4.2l0.2,4.2h0.2c1.5-2.5,3.9-4.8,8.2-4.8c3.6,0,6.3,2.2,7.4,5.2h0.1
		c0.8-1.5,1.8-2.6,2.9-3.4c1.6-1.2,3.3-1.8,5.8-1.8c3.5,0,8.6,2.3,8.6,11.3V260H418v-14.8c0-5-1.8-8-5.7-8c-2.7,0-4.8,2-5.6,4.3
		c-0.2,0.6-0.4,1.5-0.4,2.4V260h-4.6v-15.7c0-4.2-1.8-7.2-5.5-7.2c-3,0-5.1,2.4-5.9,4.8c-0.3,0.7-0.4,1.5-0.4,2.3V260h-4.6V241z"/>
	<path class="st15" d="M430.3,241c0-2.7-0.1-4.9-0.2-7.1h4.2l0.2,4.2h0.2c1.5-2.5,3.9-4.8,8.2-4.8c3.6,0,6.3,2.2,7.4,5.2h0.1
		c0.8-1.5,1.8-2.6,2.9-3.4c1.6-1.2,3.3-1.8,5.8-1.8c3.5,0,8.6,2.3,8.6,11.3V260H463v-14.8c0-5-1.8-8-5.7-8c-2.7,0-4.8,2-5.6,4.3
		c-0.2,0.6-0.4,1.5-0.4,2.4V260h-4.6v-15.7c0-4.2-1.8-7.2-5.5-7.2c-3,0-5.1,2.4-5.9,4.8c-0.3,0.7-0.4,1.5-0.4,2.3V260h-4.6V241z"/>
	<path class="st15" d="M478,247.8c0.1,6.4,4.2,9.1,9,9.1c3.4,0,5.5-0.6,7.2-1.4l0.8,3.4c-1.7,0.8-4.5,1.6-8.7,1.6
		c-8,0-12.9-5.3-12.9-13.2c0-7.9,4.6-14.1,12.3-14.1c8.5,0,10.8,7.5,10.8,12.3c0,1-0.1,1.7-0.2,2.2H478V247.8z M492,244.4
		c0.1-3-1.2-7.7-6.6-7.7c-4.8,0-6.9,4.4-7.3,7.7H492z"/>
	<path class="st15" d="M502.4,242.1c0-3.1-0.1-5.7-0.2-8.2h4.2l0.2,5.1h0.2c1.2-3.5,4.1-5.7,7.2-5.7c0.5,0,0.9,0.1,1.4,0.2v4.5
		c-0.5-0.1-1-0.2-1.6-0.2c-3.3,0-5.7,2.5-6.4,6.1c-0.1,0.6-0.2,1.4-0.2,2.2V260h-4.7v-17.9H502.4z"/>
	<path class="st15" d="M538.2,259.1c-1.2,0.6-4,1.5-7.5,1.5c-7.9,0-13-5.3-13-13.3s5.5-13.9,14-13.9c2.8,0,5.3,0.7,6.6,1.4l-1.1,3.7
		c-1.1-0.6-2.9-1.2-5.5-1.2c-6,0-9.2,4.4-9.2,9.9c0,6,3.9,9.8,9.1,9.8c2.7,0,4.5-0.7,5.8-1.3L538.2,259.1z"/>
	<path class="st15" d="M549,226.6c0.1,1.6-1.1,2.9-3,2.9c-1.7,0-2.9-1.3-2.9-2.9c0-1.7,1.2-3,3-3C547.9,223.6,549,224.9,549,226.6z
		 M543.7,260v-26.1h4.8V260H543.7z"/>
	<path class="st15" d="M570.8,260l-0.4-3.3h-0.2c-1.5,2.1-4.3,3.9-8,3.9c-5.3,0-8-3.7-8-7.5c0-6.3,5.6-9.8,15.7-9.7v-0.5
		c0-2.2-0.6-6-5.9-6c-2.4,0-5,0.8-6.8,1.9l-1.1-3.1c2.2-1.4,5.3-2.3,8.6-2.3c8,0,9.9,5.5,9.9,10.7v9.8c0,2.3,0.1,4.5,0.4,6.3h-4.2
		V260z M570.1,246.7c-5.2-0.1-11.1,0.8-11.1,5.9c0,3.1,2.1,4.5,4.5,4.5c3.4,0,5.6-2.2,6.3-4.4c0.2-0.5,0.3-1,0.3-1.5V246.7z"/>
	<path class="st15" d="M582.4,221.7h4.8V260h-4.8V221.7z"/>
	<path class="st15" d="M629.5,260c-1-1-2-2.1-3.4-3.6c-3.1,2.9-6.6,4.2-10.6,4.2c-7.1,0-11.2-4.8-11.2-10.2c0-5,3-8.4,7.1-10.6v-0.2
		c-1.9-2.4-3-5-3-7.6c0-4.4,3.2-9,9.2-9c4.5,0,8,3,8,7.7c0,3.8-2.2,6.9-8,9.7v0.2c3.1,3.6,6.5,7.6,8.9,10.2c1.7-2.5,2.8-6,3.5-10.6
		h4.3c-1,5.7-2.5,10.3-5.2,13.4c1.9,2.1,3.8,4.1,6,6.4H629.5z M623.8,253.8c-2.2-2.4-6.2-6.8-10.3-11.4c-1.9,1.2-4.7,3.6-4.7,7.4
		c0,4.2,3.1,7.3,7.5,7.3C619.4,257.1,622.1,255.7,623.8,253.8z M612.7,231.6c0,2.6,1.2,4.6,2.8,6.5c3.7-2.1,6-4,6-7.1
		c0-2.2-1.2-4.7-4.2-4.7S612.7,228.8,612.7,231.6z"/>
	<path class="st15" d="M655.6,223.6v15.2h17.6v-15.2h4.8V260h-4.8v-17h-17.6v17h-4.7v-36.4H655.6z"/>
	<path class="st15" d="M709.6,246.8c0,9.7-6.7,13.9-13,13.9c-7.1,0-12.5-5.2-12.5-13.4c0-8.7,5.7-13.9,13-13.9
		C704.5,233.3,709.6,238.8,709.6,246.8z M688.8,247c0,5.7,3.3,10,7.9,10c4.5,0,7.9-4.3,7.9-10.2c0-4.4-2.2-10-7.8-10
		S688.8,242.1,688.8,247z"/>
	<path class="st15" d="M715.6,241c0-2.7-0.1-4.9-0.2-7.1h4.2l0.2,4.2h0.2c1.5-2.5,3.9-4.8,8.2-4.8c3.6,0,6.3,2.2,7.4,5.2h0.1
		c0.8-1.5,1.8-2.6,2.9-3.4c1.6-1.2,3.3-1.8,5.8-1.8c3.5,0,8.6,2.3,8.6,11.3V260h-4.6v-14.8c0-5-1.8-8-5.7-8c-2.7,0-4.8,2-5.6,4.3
		c-0.2,0.6-0.4,1.5-0.4,2.4V260h-4.6v-15.7c0-4.2-1.8-7.2-5.5-7.2c-3,0-5.1,2.4-5.9,4.8c-0.3,0.7-0.4,1.5-0.4,2.3V260h-4.6v-19
		H715.6z"/>
	<path class="st15" d="M763.2,247.8c0.1,6.4,4.2,9.1,9,9.1c3.4,0,5.5-0.6,7.2-1.4l0.8,3.4c-1.7,0.8-4.5,1.6-8.7,1.6
		c-8,0-12.9-5.3-12.9-13.2c0-7.9,4.6-14.1,12.3-14.1c8.5,0,10.8,7.5,10.8,12.3c0,1-0.1,1.7-0.2,2.2h-18.3V247.8z M777.2,244.4
		c0.1-3-1.2-7.7-6.6-7.7c-4.8,0-6.9,4.4-7.3,7.7H777.2z"/>
	<path class="st15" d="M824.7,258.8c-1.7,0.9-5.2,1.7-9.6,1.7c-10.3,0-18-6.5-18-18.4c0-11.4,7.7-19.1,19-19.1c4.5,0,7.4,1,8.6,1.6
		l-1.1,3.8c-1.8-0.9-4.3-1.5-7.3-1.5c-8.5,0-14.2,5.5-14.2,15c0,8.9,5.1,14.6,14,14.6c2.9,0,5.8-0.6,7.7-1.5L824.7,258.8z"/>
	<path class="st15" d="M830.4,221.7h4.8V260h-4.8V221.7z"/>
	<path class="st15" d="M845.8,247.8c0.1,6.4,4.2,9.1,9,9.1c3.4,0,5.5-0.6,7.2-1.4l0.8,3.4c-1.7,0.8-4.5,1.6-8.7,1.6
		c-8,0-12.9-5.3-12.9-13.2c0-7.9,4.6-14.1,12.3-14.1c8.5,0,10.8,7.5,10.8,12.3c0,1-0.1,1.7-0.2,2.2h-18.3V247.8z M859.7,244.4
		c0.1-3-1.2-7.7-6.6-7.7c-4.8,0-6.9,4.4-7.3,7.7H859.7z"/>
	<path class="st15" d="M884.7,260l-0.4-3.3h-0.2c-1.5,2.1-4.3,3.9-8,3.9c-5.3,0-8-3.7-8-7.5c0-6.3,5.6-9.8,15.7-9.7v-0.5
		c0-2.2-0.6-6-5.9-6c-2.4,0-5,0.8-6.8,1.9l-1.1-3.1c2.2-1.4,5.3-2.3,8.6-2.3c8,0,9.9,5.5,9.9,10.7v9.8c0,2.3,0.1,4.5,0.4,6.3h-4.2
		V260z M884,246.7c-5.2-0.1-11.1,0.8-11.1,5.9c0,3.1,2.1,4.5,4.5,4.5c3.4,0,5.6-2.2,6.3-4.4c0.2-0.5,0.3-1,0.3-1.5V246.7z"/>
	<path class="st15" d="M896.2,241c0-2.7-0.1-4.9-0.2-7.1h4.2l0.3,4.3h0.1c1.3-2.5,4.3-4.9,8.6-4.9c3.6,0,9.2,2.2,9.2,11.1V260h-4.8
		v-15c0-4.2-1.6-7.7-6-7.7c-3.1,0-5.6,2.2-6.4,4.9c-0.2,0.6-0.3,1.4-0.3,2.2V260h-4.8v-19H896.2z"/>
	<path class="st15" d="M931.5,226.6c0.1,1.6-1.1,2.9-3,2.9c-1.7,0-2.9-1.3-2.9-2.9c0-1.7,1.2-3,3-3
		C930.4,223.6,931.5,224.9,931.5,226.6z M926.2,260v-26.1h4.8V260H926.2z"/>
	<path class="st15" d="M938.8,241c0-2.7-0.1-4.9-0.2-7.1h4.2l0.3,4.3h0.1c1.3-2.5,4.3-4.9,8.6-4.9c3.6,0,9.2,2.2,9.2,11.1V260h-4.8
		v-15c0-4.2-1.6-7.7-6-7.7c-3.1,0-5.6,2.2-6.4,4.9c-0.2,0.6-0.3,1.4-0.3,2.2V260h-4.8v-19H938.8z"/>
	<path class="st15" d="M991.3,233.9c-0.1,1.9-0.2,4-0.2,7.2v15.2c0,6-1.2,9.7-3.7,11.9c-2.5,2.4-6.2,3.1-9.5,3.1
		c-3.1,0-6.6-0.8-8.7-2.2l1.2-3.6c1.7,1.1,4.4,2.1,7.7,2.1c4.9,0,8.4-2.5,8.4-9.1v-2.9h-0.1c-1.5,2.4-4.3,4.4-8.3,4.4
		c-6.5,0-11.1-5.5-11.1-12.7c0-8.9,5.8-13.9,11.8-13.9c4.5,0,7,2.4,8.2,4.5h0.1l0.2-3.9h4V233.9z M986.4,244.2
		c0-0.8-0.1-1.5-0.3-2.2c-0.9-2.8-3.2-5-6.6-5c-4.5,0-7.8,3.8-7.8,9.9c0,5.1,2.6,9.4,7.7,9.4c2.9,0,5.6-1.8,6.6-4.9
		c0.3-0.8,0.4-1.7,0.4-2.5L986.4,244.2L986.4,244.2z"/>
</g>
</svg>
